<svg xmlns="http://www.w3.org/2000/svg" viewBox="0 0 200 200">
  <defs>
    <radialGradient id="petalGradient" cx="50%" cy="50%" r="50%" fx="50%" fy="50%">
      <stop offset="0%" style="stop-color:#ff9999;stop-opacity:1" />
      <stop offset="100%" style="stop-color:#ff3333;stop-opacity:1" />
    </radialGradient>
  </defs>
  
  <!-- Stem -->
  <path d="M100 200 L100 120" stroke="green" stroke-width="4" fill="none" />
  
  <!-- Leaves -->
  <path d="M100 180 Q80 170 70 180" fill="green" />
  <path d="M100 160 Q120 150 130 160" fill="green" />
  
  <!-- Bud/Flower -->
  <g transform="translate(100 100)">
    <!-- Outer petals -->
    <path d="M0 0 C-20 -20 -20 20 0 30 C20 20 20 -20 0 -30 Z" fill="url(#petalGradient)" transform="rotate(0)" />
    <path d="M0 0 C-20 -20 -20 20 0 30 C20 20 20 -20 0 -30 Z" fill="url(#petalGradient)" transform="rotate(72)" />
    <path d="M0 0 C-20 -20 -20 20 0 30 C20 20 20 -20 0 -30 Z" fill="url(#petalGradient)" transform="rotate(144)" />
    <path d="M0 0 C-20 -20 -20 20 0 30 C20 20 20 -20 0 -30 Z" fill="url(#petalGradient)" transform="rotate(216)" />
    <path d="M0 0 C-20 -20 -20 20 0 30 C20 20 20 -20 0 -30 Z" fill="url(#petalGradient)" transform="rotate(288)" />
    
    <!-- Center -->
    <circle cx="0" cy="0" r="10" fill="#ffcc00" />
  </g>
</svg>
